# xmcd CD database file
#
# Track frame offsets:
#	150
#	22207
#	41457
#	78562
#	112435
#	132577
#	145165
#	170177
#	198175
#	215595
#	237902
#	255692
#
# Disc length: 3799 seconds
#
# Revision: 1
# Processed by: cddbd v1.5.2PL0 Copyright (c) Steve Scherf et al.
# Submitted via: CDex 1.70beta2
#
DISCID=bc0ed50c
DTITLE=Götz Tangerding - Crystalization [CD1)
DYEAR=1995
DGENRE=Jazz
TTITLE0=Algarve Bues
TTITLE1=Moving
TTITLE2=Insights and Outlooks
TTITLE3=Urban Pioneers
TTITLE4=Mystic Bridge
TTITLE5=Glimpse of Truth
TTITLE6=Answer to my Soul
TTITLE7=Opus de Salsa
TTITLE8=First Step
TTITLE9=Die Zeitmaschine
TTITLE10=Eastern Mood
TTITLE11=Tutanhamun
EXTD=YEAR: 1995
EXTT0=
EXTT1=
EXTT2=
EXTT3=
EXTT4=
EXTT5=
EXTT6=
EXTT7=
EXTT8=
EXTT9=
EXTT10=
EXTT11=
PLAYORDER=
